<svg width="364" height="90" viewBox="0 0 364 90" fill="none" xmlns="http://www.w3.org/2000/svg">
<path d="M71.3096 35.2024H85.0567V42.3639H85.2619C87.1769 39.6357 89.4681 37.5213 92.1354 36.0208C94.8712 34.5204 97.9831 33.7701 101.471 33.7701C104.822 33.7701 107.866 34.418 110.602 35.7139C113.406 37.0098 115.526 39.2947 116.962 42.5685C118.535 40.2495 120.655 38.2034 123.323 36.4301C126.059 34.6568 129.273 33.7701 132.966 33.7701C135.77 33.7701 138.369 34.1111 140.763 34.7932C143.157 35.4752 145.209 36.5665 146.919 38.067C148.628 39.5675 149.962 41.5454 150.92 44.0008C151.877 46.3879 152.356 49.2866 152.356 52.6968V88.0949H137.788V58.1191C137.788 56.3458 137.72 54.6747 137.583 53.106C137.446 51.5373 137.07 50.1733 136.454 49.0138C135.839 47.8543 134.916 46.9336 133.684 46.2515C132.522 45.5695 130.915 45.2284 128.863 45.2284C126.811 45.2284 125.135 45.6377 123.836 46.4561C122.605 47.2064 121.613 48.2294 120.861 49.5253C120.177 50.753 119.698 52.1853 119.424 53.8222C119.219 55.3909 119.117 56.9937 119.117 58.6306V88.0949H104.549V58.426C104.549 56.8573 104.515 55.3227 104.446 53.8222C104.378 52.2535 104.07 50.8212 103.523 49.5253C103.044 48.2294 102.189 47.2064 100.958 46.4561C99.7955 45.6377 98.0515 45.2284 95.7261 45.2284C95.0421 45.2284 94.1188 45.3989 92.9561 45.74C91.8619 46.0128 90.7676 46.5925 89.6733 47.4792C88.6474 48.2976 87.7582 49.5253 87.0059 51.1622C86.2536 52.7309 85.8774 54.8112 85.8774 57.4029V88.0949H71.3096V35.2024Z" fill="white"/>
<path d="M2.14144 51.4691C2.34662 48.0589 3.20154 45.2284 4.7062 42.9777C6.21085 40.7269 8.12587 38.9195 10.4512 37.5554C12.7766 36.1914 15.3756 35.2365 18.2481 34.6909C21.189 34.077 24.1299 33.7701 27.0708 33.7701C29.7382 33.7701 32.4397 33.9747 35.1755 34.3839C37.9112 34.725 40.4076 35.4411 42.6645 36.5324C44.9215 37.6236 46.7682 39.1582 48.2044 41.1362C49.6407 43.0459 50.3588 45.6036 50.3588 48.8092V76.3296C50.3588 78.7168 50.4956 81.0016 50.7692 83.1842C51.0427 85.3667 51.5215 87.0036 52.2054 88.0949H37.4324C37.1589 87.2764 36.9195 86.458 36.7143 85.6395C36.5775 84.7529 36.4749 83.8662 36.4065 82.9796C34.0812 85.3667 31.3454 87.0377 28.1993 87.9926C25.0532 88.9474 21.8387 89.4249 18.5559 89.4249C16.0253 89.4249 13.6657 89.118 11.4771 88.5041C9.28855 87.8903 7.37354 86.9354 5.7321 85.6395C4.09065 84.3437 2.79118 82.7067 1.83367 80.7288C0.944557 78.7509 0.5 76.3978 0.5 73.6697C0.5 70.6687 1.01295 68.2133 2.03885 66.3036C3.13315 64.3257 4.50102 62.757 6.14246 61.5975C7.85229 60.438 9.76731 59.5855 11.8875 59.0398C14.0761 58.426 16.2647 57.9486 18.4533 57.6075C20.6419 57.2665 22.7963 56.9937 24.9165 56.7891C27.0366 56.5845 28.9175 56.2775 30.5589 55.8683C32.2003 55.4591 33.4998 54.8794 34.4573 54.1291C35.4148 53.3107 35.8594 52.1512 35.791 50.6507C35.791 49.082 35.5174 47.8543 34.9703 46.9676C34.4915 46.0128 33.8076 45.2966 32.9185 44.8192C32.0978 44.2736 31.1061 43.9326 29.9434 43.7961C28.8491 43.5915 27.6522 43.4892 26.3527 43.4892C23.4802 43.4892 21.2232 44.1031 19.5818 45.3307C17.9403 46.5584 16.9828 48.6046 16.7092 51.4691H2.14144ZM35.791 62.2113C35.1755 62.757 34.3889 63.2003 33.4314 63.5413C32.5423 63.8141 31.5506 64.0528 30.4563 64.2575C29.4304 64.4621 28.3361 64.6326 27.1734 64.769C26.0107 64.9054 24.8481 65.0759 23.6854 65.2805C22.5911 65.4851 21.4968 65.758 20.4025 66.099C19.3766 66.44 18.4533 66.9174 17.6326 67.5313C16.8802 68.0769 16.2647 68.7931 15.7859 69.6797C15.3072 70.5664 15.0678 71.6917 15.0678 73.0558C15.0678 74.3517 15.3072 75.443 15.7859 76.3296C16.2647 77.2163 16.9144 77.9324 17.7351 78.4781C18.5559 78.9555 19.5134 79.2965 20.6077 79.5011C21.702 79.7057 22.8305 79.8081 23.9931 79.8081C26.8657 79.8081 29.0884 79.3306 30.6615 78.3758C32.2345 77.4209 33.3972 76.2955 34.1496 74.9996C34.9019 73.6356 35.3464 72.2715 35.4832 70.9074C35.6884 69.5433 35.791 68.452 35.791 67.6336V62.2113Z" fill="white"/>
<path d="M331.498 38.2993H341.511C339.798 42.9416 337.47 49.0073 334.528 56.4963C329.653 69.0219 327.216 76.4671 327.216 78.8321C327.216 80.1898 327.655 81.2847 328.533 82.1168C329.455 82.9489 330.685 83.365 332.222 83.365C334.067 83.365 336.175 82.5109 338.546 80.8029C340.918 79.0949 343.245 76.7299 345.529 73.708L347.571 75.1533C343.619 80.3212 339.886 84.0876 336.372 86.4526C332.859 88.8175 329.258 90 325.569 90C323.153 90 320.936 89.1679 318.915 87.5036C316.895 85.8394 315.885 84.1533 315.885 82.4453C315.885 81.5256 316.193 80.2117 316.807 78.5037C316.851 78.3723 316.895 78.2409 316.939 78.1095L331.498 38.2993ZM340.852 7.62044C340.852 5.69343 341.599 3.94161 343.092 2.36496C344.629 0.788321 346.342 0 348.23 0C349.811 0 351.085 0.50365 352.051 1.51095C353.017 2.51825 353.5 3.85401 353.5 5.51825C353.5 7.48905 352.775 9.24088 351.326 10.7737C349.921 12.2628 348.274 13.0073 346.385 13.0073C344.717 13.0073 343.377 12.5255 342.367 11.562C341.357 10.5547 340.852 9.24088 340.852 7.62044Z" fill="white"/>
<path d="M298.238 78.7007L299.753 80.4088C296.943 83.3431 293.913 85.6861 290.663 87.438C287.457 89.146 284.602 90 282.099 90C279.376 90 277.202 89.365 275.577 88.0949C273.996 86.8686 273.206 85.2482 273.206 83.2336C273.206 82.2701 273.733 80.3431 274.787 77.4526C275.885 74.562 277.949 69.635 280.979 62.6715C283.263 57.4599 284.756 53.7591 285.458 51.5693C286.161 49.3796 286.512 47.6496 286.512 46.3796C286.512 44.8905 286.161 43.7518 285.458 42.9635C284.8 42.1752 283.812 41.781 282.494 41.781C277.839 41.781 272.569 46.0292 266.684 54.5255C260.799 62.9781 255.507 74.1679 250.808 88.0949H241.19L258.318 38.2993H267.936L260.36 59.1898C264.796 51.6131 269.341 45.9416 273.996 42.1752C278.695 38.365 283.504 36.4599 288.423 36.4599C291.453 36.4599 293.803 37.0949 295.472 38.365C297.14 39.5912 297.975 41.3212 297.975 43.5547C297.975 45.0876 296.701 48.7445 294.154 54.5255C293.1 57.0219 292.266 58.9708 291.651 60.3723C289.543 65.4526 287.786 69.8759 286.381 73.6423C285.019 77.4088 284.339 79.6204 284.339 80.2774C284.339 81.3723 284.734 82.3139 285.524 83.1022C286.359 83.8467 287.369 84.219 288.555 84.219C289.653 84.219 290.948 83.8029 292.441 82.9708C293.978 82.0949 295.911 80.6715 298.238 78.7007Z" fill="white"/>
<path d="M212.872 49.3358C212.52 47.2336 211.598 45.5912 210.105 44.4088C208.656 43.2263 206.833 42.635 204.637 42.635C203.539 42.635 202.507 42.7883 201.541 43.0949C200.575 43.3577 199.587 43.7737 198.577 44.3431C193.482 50.0365 189.442 55.9051 186.455 61.9489C183.469 67.9489 181.976 72.9854 181.976 77.0584C181.976 79.073 182.437 80.6058 183.359 81.6569C184.282 82.708 185.665 83.2336 187.51 83.2336C190.101 83.2336 193.636 81.0876 198.115 76.7956C202.639 72.5037 205.845 67.8832 207.733 62.9343L212.872 49.3358ZM207.075 69.2409C202.112 76.2482 197.325 81.438 192.714 84.8102C188.102 88.1825 183.447 89.9124 178.748 90C176.201 89.1679 174.312 87.8759 173.083 86.1241C171.809 84.3285 171.172 82.073 171.172 79.3577C171.172 74.8029 172.644 69.9635 175.586 64.8394C178.485 59.6715 182.679 54.5474 188.168 49.4672C192.604 45.3504 196.754 42.1533 200.619 39.8759C204.527 37.5985 207.711 36.4599 210.171 36.4599C211.4 36.4599 212.608 36.854 213.794 37.6423C215.024 38.3869 216.056 39.4161 216.89 40.7299L218.142 37.3796H227.035C226.464 38.8248 225.608 40.9708 224.466 43.8175C217.746 60.4599 213.377 72.3504 211.356 79.4891C211.532 80.6715 212.059 81.5912 212.937 82.2482C213.816 82.9051 214.958 83.2336 216.363 83.2336C217.988 83.2336 219.679 82.708 221.435 81.6569C223.236 80.6058 225.366 78.854 227.825 76.4015L229.604 77.8467C226.398 81.7007 223.038 84.7007 219.525 86.8467C216.012 88.9489 212.718 90 209.644 90C207.492 90 205.625 89.4964 204.044 88.4891C202.463 87.4818 201.168 85.9708 200.158 83.9562C200.816 82.5547 201.892 80.2336 203.385 76.9927C204.923 73.708 206.152 71.1241 207.075 69.2409Z" fill="white"/>
<path d="M358.535 48.3748C355.62 48.3748 353.547 46.1703 353.547 43.2556C353.547 40.1779 355.851 38.1364 358.535 38.1364C361.22 38.1364 363.496 40.174 363.496 43.2556C363.496 46.3372 361.193 48.3748 358.535 48.3748ZM358.535 39.0291C356.339 39.0291 354.632 40.7678 354.632 43.2595C354.632 45.5843 356.124 47.486 358.535 47.486C360.704 47.486 362.412 45.7628 362.412 43.2595C362.412 40.7562 360.704 39.0291 358.535 39.0291ZM357.532 46.1859H356.609V40.5194H358.739C360.097 40.5194 360.785 40.9968 360.785 42.1456C360.785 43.1741 360.162 43.5972 359.32 43.6942L360.893 46.1859H359.85L358.397 43.7641H357.532V46.1859ZM358.562 42.9684C359.254 42.9684 359.862 42.8986 359.862 42.0797C359.862 41.3966 359.197 41.3112 358.643 41.3112H357.532V42.9684H358.562Z" fill="white"/>
</svg>
