<?xml version="1.0" encoding="UTF-8"?>
<svg width="24px" height="24px" viewBox="0 0 24 24" version="1.1" xmlns="http://www.w3.org/2000/svg" xmlns:xlink="http://www.w3.org/1999/xlink">
    <!-- Generator: Sketch 62 (91390) - https://sketch.com -->
    <title>01 - Atoms/Icons/icn-check</title>
    <desc>Created with Sketch.</desc>
    <g id="01---Atoms/Icons/icn-check" stroke="none" stroke-width="1" fill="none" fill-rule="evenodd">
        <path d="M19.4374741,5.28453886 L19.4374742,5.28453893 C18.8252097,4.8065415 17.9631247,4.94489646 17.5119481,5.59356424 C17.5118846,5.59365557 17.5118211,5.59374691 17.5117576,5.59383825 L10.6505774,15.4599118 L6.26043558,11.7389793 L6.26043551,11.7389792 C5.67696749,11.2221326 4.80849389,11.3042627 4.32065384,11.9224219 C3.83281269,12.540581 3.91033367,13.4606913 4.49380169,13.9775368 C4.50916972,13.99115 4.52481626,14.0044064 4.54073027,14.0172965 L10.0490638,18.6859696 L10.0490636,18.6859695 C10.2933483,18.8921509 10.5971516,19.0030121 10.9094653,19 L10.9094653,19 C11.3450742,19.0014088 11.7558218,18.7851216 12.017742,18.4163536 L19.7294089,7.32825491 L19.7294089,7.32825486 C20.1818931,6.68141604 20.0537649,5.76842783 19.4432267,5.2890368 C19.4413105,5.28753224 19.4393907,5.28603295 19.4374671,5.28453896 L19.4374741,5.28453886 Z" id="Path" fill="#ffffff" fill-rule="nonzero"></path>
    </g>
</svg>