<?xml version="1.0" standalone="no"?>
<!DOCTYPE svg PUBLIC "-//W3C//DTD SVG 20010904//EN"
 "http://www.w3.org/TR/2001/REC-SVG-20010904/DTD/svg10.dtd">
<svg version="1.0" xmlns="http://www.w3.org/2000/svg"
 width="180.000000pt" height="180.000000pt" viewBox="0 0 180.000000 180.000000"
 preserveAspectRatio="xMidYMid meet">
<metadata>
Created by potrace 1.14, written by Peter Selinger 2001-2017
</metadata>
<g transform="translate(0.000000,180.000000) scale(0.100000,-0.100000)"
fill="#000000" stroke="none">
<path d="M0 900 l0 -900 900 0 900 0 0 900 0 900 -900 0 -900 0 0 -900z m862
602 c91 -53 294 -177 348 -212 30 -20 62 -40 70 -43 8 -4 42 -24 75 -45 l60
-39 2 -99 c2 -54 5 -110 8 -123 6 -25 12 -25 138 -5 35 6 37 5 37 -19 0 -22
-8 -28 -52 -43 -42 -15 -83 -18 -198 -17 -145 0 -158 3 -304 49 -98 32 -261
18 -386 -32 -27 -11 -83 -14 -250 -12 l-215 3 0 25 0 25 215 6 c196 5 274 15
319 38 27 14 111 25 201 26 l85 0 3 84 c2 61 -1 87 -10 92 -22 15 -394 11
-406 -3 -5 -7 -10 -40 -11 -72 -1 -36 -6 -63 -13 -68 -19 -12 -346 -10 -369 2
-15 9 -19 22 -19 69 0 71 -1 71 190 186 254 155 275 167 300 185 29 20 122 70
130 70 3 -1 26 -13 52 -28z m173 -689 c233 -59 368 -69 491 -36 56 15 66 15
74 3 21 -34 -20 -59 -122 -75 -49 -8 -60 -29 -58 -118 1 -40 1 -80 1 -89 -1
-17 -17 -18 -189 -18 -133 0 -192 4 -200 12 -8 8 -12 53 -12 135 0 115 -1 123
-22 134 -35 19 -200 5 -295 -25 -79 -26 -89 -26 -295 -24 l-213 3 0 25 0 25
225 6 c181 4 236 9 280 24 133 44 214 49 335 18z m-468 -199 c17 -5 22 -15 25
-56 5 -81 12 -78 -202 -78 l-190 0 -6 23 c-3 13 -4 41 -2 63 2 31 8 40 28 45
31 9 317 11 347 3z"/>
</g>
</svg>
