{
	"asset":{
		"generator":"Khronos glTF Blender I/O v4.2.69",
		"version":"2.0"
	},
	"scene":0,
	"scenes":[
		{
			"name":"Scene",
			"nodes":[
				0
			]
		}
	],
	"nodes":[
		{
			"mesh":0,
			"name":"Cube",
			"translation":[
				0,
				0.5,
				0
			]
		}
	],
	"meshes":[
		{
			"name":"Cube.001",
			"primitives":[
				{
					"attributes":{
						"POSITION":0,
						"NORMAL":1,
						"TEXCOORD_0":2
					},
					"indices":3
				}
			]
		}
	],
	"accessors":[
		{
			"bufferView":0,
			"componentType":5126,
			"count":16224,
			"max":[
				0.5,
				0.5,
				0.5
			],
			"min":[
				-0.5,
				-0.5,
				-0.5
			],
			"type":"VEC3"
		},
		{
			"bufferView":1,
			"componentType":5126,
			"count":16224,
			"type":"VEC3"
		},
		{
			"bufferView":2,
			"componentType":5126,
			"count":16224,
			"type":"VEC2"
		},
		{
			"bufferView":3,
			"componentType":5123,
			"count":93636,
			"type":"SCALAR"
		}
	],
	"bufferViews":[
		{
			"buffer":0,
			"byteLength":194688,
			"byteOffset":0,
			"target":34962
		},
		{
			"buffer":0,
			"byteLength":194688,
			"byteOffset":194688,
			"target":34962
		},
		{
			"buffer":0,
			"byteLength":129792,
			"byteOffset":389376,
			"target":34962
		},
		{
			"buffer":0,
			"byteLength":187272,
			"byteOffset":519168,
			"target":34963
		}
	],
	"buffers":[
		{
			"byteLength":706440,
			"uri":"data:application/octet-stream;base64,"
		}
	]
}
