{
	"asset":{
		"generator":"Khronos glTF Blender I/O v4.2.69",
		"version":"2.0"
	},
	"extensionsUsed":[
		"KHR_materials_transmission",
		"KHR_materials_volume",
		"KHR_texture_transform"
	],
	"extensionsRequired":[
		"KHR_texture_transform"
	],
	"scene":0,
	"scenes":[
		{
			"name":"Scene",
			"nodes":[
				0
			]
		}
	],
	"nodes":[
		{
			"mesh":0,
			"name":"Cube",
			"translation":[
				0,
				0.5,
				0
			]
		}
	],
	"materials":[
		{
			"alphaMode":"BLEND",
			"doubleSided":false,
			"extensions":{
				"KHR_materials_transmission":{
					"transmissionFactor":1
				},
				"KHR_materials_volume":{
					"attenuationColor":[
						1,
						1,
						1
					],
					"thicknessFactor":0.009999999776482582
				}
			},
			"name":"GlassMaterial",
			"normalTexture":{
				"extensions":{
					"KHR_texture_transform":{
						"scale":[
							7,
							7
						]
					}
				},
				"index":0
			},
			"pbrMetallicRoughness":{
				"baseColorFactor":[
					0.8069522380828857,
					0.8879231214523315,
					0.9215818643569946,
					0.699999988079071
				],
				"baseColorTexture":{
					"extensions":{
						"KHR_texture_transform":{
							"scale":[
								7,
								7
							]
						}
					},
					"index":1
				},
				"metallicFactor":0,
				"metallicRoughnessTexture":{
					"extensions":{
						"KHR_texture_transform":{
							"scale":[
								7,
								7
							]
						}
					},
					"index":2
				},
				"roughnessFactor":0.10000000149011612
			}
		}
	],
	"meshes":[
		{
			"name":"Cube.001",
			"primitives":[
				{
					"attributes":{
						"POSITION":0,
						"NORMAL":1,
						"TEXCOORD_0":2
					},
					"indices":3,
					"material":0
				}
			]
		}
	],
	"textures":[
		{
			"sampler":0,
			"source":0
		},
		{
			"sampler":0,
			"source":1
		},
		{
			"sampler":0,
			"source":2
		}
	],
	"images":[
		{
			"bufferView":4,
			"mimeType":"image/png",
			"name":"Image_7"
		},
		{
			"bufferView":5,
			"mimeType":"image/png",
			"name":"Image_6"
		},
		{
			"bufferView":6,
			"mimeType":"image/png",
			"name":"Image_5"
		}
	],
	"accessors":[
		{
			"bufferView":0,
			"componentType":5126,
			"count":16224,
			"max":[
				0.5,
				0.5,
				0.5
			],
			"min":[
				-0.5,
				-0.5,
				-0.5
			],
			"type":"VEC3"
		},
		{
			"bufferView":1,
			"componentType":5126,
			"count":16224,
			"type":"VEC3"
		},
		{
			"bufferView":2,
			"componentType":5126,
			"count":16224,
			"type":"VEC2"
		},
		{
			"bufferView":3,
			"componentType":5123,
			"count":93636,
			"type":"SCALAR"
		}
	],
	"bufferViews":[
		{
			"buffer":0,
			"byteLength":194688,
			"byteOffset":0,
			"target":34962
		},
		{
			"buffer":0,
			"byteLength":194688,
			"byteOffset":194688,
			"target":34962
		},
		{
			"buffer":0,
			"byteLength":129792,
			"byteOffset":389376,
			"target":34962
		},
		{
			"buffer":0,
			"byteLength":187272,
			"byteOffset":519168,
			"target":34963
		},
		{
			"buffer":0,
			"byteLength":197560,
			"byteOffset":706440
		},
		{
			"buffer":0,
			"byteLength":11832,
			"byteOffset":904000
		},
		{
			"buffer":0,
			"byteLength":203016,
			"byteOffset":915832
		}
	],
	"samplers":[
		{
			"magFilter":9729,
			"minFilter":9987
		}
	],
	"buffers":[
		{
			"byteLength":1118848,
			"uri":"data:application/octet-stream;base64,"
		}
	]
}
