{
	"asset":{
		"generator":"Khronos glTF Blender I/O v4.2.69",
		"version":"2.0"
	},
	"extensionsUsed":[
		"KHR_materials_transmission",
		"KHR_materials_volume",
		"KHR_texture_transform"
	],
	"extensionsRequired":[
		"KHR_texture_transform"
	],
	"scene":0,
	"scenes":[
		{
			"name":"Scene",
			"nodes":[
				0
			]
		}
	],
	"nodes":[
		{
			"mesh":0,
			"name":"P61036.001",
			"rotation":[
				0.7071068286895752,
				0,
				0,
				0.7071068286895752
			]
		}
	],
	"materials":[
		{
			"doubleSided":true,
			"name":"FrameMaterialMatte.004",
			"pbrMetallicRoughness":{
				"baseColorFactor":[
					0.001214000047184527,
					0.001214000047184527,
					0.0015180000336840749,
					1
				],
				"metallicFactor":0,
				"roughnessFactor":0.5
			}
		},
		{
			"doubleSided":true,
			"name":"ThermoAsh.002",
			"pbrMetallicRoughness":{
				"baseColorFactor":[
					0.800000011920929,
					0.800000011920929,
					0.800000011920929,
					1
				],
				"metallicFactor":0,
				"roughnessFactor":0.5
			}
		},
		{
			"doubleSided":true,
			"name":"FrameMaterialMatte.005",
			"pbrMetallicRoughness":{
				"baseColorFactor":[
					0.800000011920929,
					0.800000011920929,
					0.800000011920929,
					1
				],
				"metallicFactor":0,
				"roughnessFactor":0.5
			}
		},
		{
			"alphaMode":"BLEND",
			"doubleSided":false,
			"extensions":{
				"KHR_materials_transmission":{
					"transmissionFactor":1
				},
				"KHR_materials_volume":{
					"attenuationColor":[
						1,
						1,
						1
					],
					"thicknessFactor":0.009999999776482582
				}
			},
			"name":"GlassMaterial",
			"normalTexture":{
				"extensions":{
					"KHR_texture_transform":{
						"scale":[
							7,
							7
						]
					}
				},
				"index":0
			},
			"pbrMetallicRoughness":{
				"baseColorFactor":[
					0.800000011920929,
					0.800000011920929,
					0.800000011920929,
					0.20000000298023224
				],
				"roughnessFactor":0.009999999776482582
			}
		},
		{
			"doubleSided":true,
			"name":"BladeMaterialMatte.002",
			"pbrMetallicRoughness":{
				"baseColorFactor":[
					0.001214000047184527,
					0.001214000047184527,
					0.0015180000336840749,
					1
				],
				"metallicFactor":0,
				"roughnessFactor":0.5
			}
		},
		{
			"alphaMode":"BLEND",
			"doubleSided":true,
			"name":"Highlight.002",
			"pbrMetallicRoughness":{
				"baseColorFactor":[
					0.0030350000597536564,
					0.006994999945163727,
					0.04373500123620033,
					0.6000000238418579
				],
				"metallicFactor":0
			}
		}
	],
	"meshes":[
		{
			"name":"P61036",
			"primitives":[
				{
					"attributes":{
						"POSITION":0,
						"NORMAL":1,
						"TEXCOORD_0":2
					},
					"indices":3,
					"material":0
				},
				{
					"attributes":{
						"POSITION":4,
						"NORMAL":5,
						"TEXCOORD_0":6
					},
					"indices":7,
					"material":1
				},
				{
					"attributes":{
						"POSITION":8,
						"NORMAL":9,
						"TEXCOORD_0":10
					},
					"indices":11,
					"material":2
				},
				{
					"attributes":{
						"POSITION":12,
						"NORMAL":13,
						"TEXCOORD_0":14
					},
					"indices":15,
					"material":3
				},
				{
					"attributes":{
						"POSITION":16,
						"NORMAL":17,
						"TEXCOORD_0":18
					},
					"indices":19,
					"material":4
				},
				{
					"attributes":{
						"POSITION":20,
						"NORMAL":21,
						"TEXCOORD_0":22
					},
					"indices":23,
					"material":5
				}
			]
		}
	],
	"textures":[
		{
			"sampler":0,
			"source":0
		}
	],
	"images":[
		{
			"bufferView":16,
			"mimeType":"image/png",
			"name":"Image_7"
		}
	],
	"accessors":[
		{
			"bufferView":0,
			"componentType":5126,
			"count":15912,
			"max":[
				0.08389806747436523,
				3.0005040168762207,
				0
			],
			"min":[
				-5.54550313949585,
				-0.0005040168762207031,
				-2.5880000591278076
			],
			"type":"VEC3"
		},
		{
			"bufferView":1,
			"componentType":5126,
			"count":15912,
			"type":"VEC3"
		},
		{
			"bufferView":2,
			"componentType":5126,
			"count":15912,
			"type":"VEC2"
		},
		{
			"bufferView":3,
			"componentType":5123,
			"count":19566,
			"type":"SCALAR"
		},
		{
			"bufferView":4,
			"componentType":5126,
			"count":5184,
			"max":[
				0.06462502479553223,
				2.950000047683716,
				-0.09495699405670166
			],
			"min":[
				0.03537487983703613,
				0.07400000095367432,
				-2.4690849781036377
			],
			"type":"VEC3"
		},
		{
			"bufferView":5,
			"componentType":5126,
			"count":5184,
			"type":"VEC3"
		},
		{
			"bufferView":6,
			"componentType":5126,
			"count":5184,
			"type":"VEC2"
		},
		{
			"bufferView":7,
			"componentType":5123,
			"count":6912,
			"type":"SCALAR"
		},
		{
			"bufferView":8,
			"componentType":5126,
			"count":3478,
			"max":[
				-0.14997506141662598,
				2.949384927749634,
				0
			],
			"min":[
				-5.394999980926514,
				2.852185010910034,
				-1.2644920349121094
			],
			"type":"VEC3"
		},
		{
			"bufferView":9,
			"componentType":5126,
			"count":3478,
			"type":"VEC3"
		},
		{
			"bufferView":10,
			"componentType":5126,
			"count":3478,
			"type":"VEC2"
		},
		{
			"bufferView":11,
			"componentType":5123,
			"count":5019,
			"type":"SCALAR"
		},
		{
			"bufferView":12,
			"componentType":5126,
			"count":120,
			"max":[
				-0.15335500240325928,
				2.9459168910980225,
				0
			],
			"min":[
				-5.388354778289795,
				2.8555490970611572,
				-2.299999952316284
			],
			"type":"VEC3"
		},
		{
			"bufferView":13,
			"componentType":5126,
			"count":120,
			"type":"VEC3"
		},
		{
			"bufferView":14,
			"componentType":5126,
			"count":120,
			"type":"VEC2"
		},
		{
			"bufferView":15,
			"componentType":5123,
			"count":180,
			"type":"SCALAR"
		},
		{
			"bufferView":17,
			"componentType":5126,
			"count":7515,
			"max":[
				-0.18501102924346924,
				2.8485000133514404,
				-2.417426109313965
			],
			"min":[
				-5.370014190673828,
				0.1484999656677246,
				-2.6446568965911865
			],
			"type":"VEC3"
		},
		{
			"bufferView":18,
			"componentType":5126,
			"count":7515,
			"type":"VEC3"
		},
		{
			"bufferView":19,
			"componentType":5126,
			"count":7515,
			"type":"VEC2"
		},
		{
			"bufferView":20,
			"componentType":5123,
			"count":12222,
			"type":"SCALAR"
		},
		{
			"bufferView":21,
			"componentType":5126,
			"count":4022,
			"max":[
				-2.354599952697754,
				-0.3986999988555908,
				0.004999995231628418
			],
			"min":[
				-3.1903998851776123,
				-0.6064999103546143,
				-0.004999995231628418
			],
			"type":"VEC3"
		},
		{
			"bufferView":22,
			"componentType":5126,
			"count":4022,
			"type":"VEC3"
		},
		{
			"bufferView":23,
			"componentType":5126,
			"count":4022,
			"type":"VEC2"
		},
		{
			"bufferView":24,
			"componentType":5123,
			"count":6744,
			"type":"SCALAR"
		}
	],
	"bufferViews":[
		{
			"buffer":0,
			"byteLength":190944,
			"byteOffset":0,
			"target":34962
		},
		{
			"buffer":0,
			"byteLength":190944,
			"byteOffset":190944,
			"target":34962
		},
		{
			"buffer":0,
			"byteLength":127296,
			"byteOffset":381888,
			"target":34962
		},
		{
			"buffer":0,
			"byteLength":39132,
			"byteOffset":509184,
			"target":34963
		},
		{
			"buffer":0,
			"byteLength":62208,
			"byteOffset":548316,
			"target":34962
		},
		{
			"buffer":0,
			"byteLength":62208,
			"byteOffset":610524,
			"target":34962
		},
		{
			"buffer":0,
			"byteLength":41472,
			"byteOffset":672732,
			"target":34962
		},
		{
			"buffer":0,
			"byteLength":13824,
			"byteOffset":714204,
			"target":34963
		},
		{
			"buffer":0,
			"byteLength":41736,
			"byteOffset":728028,
			"target":34962
		},
		{
			"buffer":0,
			"byteLength":41736,
			"byteOffset":769764,
			"target":34962
		},
		{
			"buffer":0,
			"byteLength":27824,
			"byteOffset":811500,
			"target":34962
		},
		{
			"buffer":0,
			"byteLength":10038,
			"byteOffset":839324,
			"target":34963
		},
		{
			"buffer":0,
			"byteLength":1440,
			"byteOffset":849364,
			"target":34962
		},
		{
			"buffer":0,
			"byteLength":1440,
			"byteOffset":850804,
			"target":34962
		},
		{
			"buffer":0,
			"byteLength":960,
			"byteOffset":852244,
			"target":34962
		},
		{
			"buffer":0,
			"byteLength":360,
			"byteOffset":853204,
			"target":34963
		},
		{
			"buffer":0,
			"byteLength":197560,
			"byteOffset":853564
		},
		{
			"buffer":0,
			"byteLength":90180,
			"byteOffset":1051124,
			"target":34962
		},
		{
			"buffer":0,
			"byteLength":90180,
			"byteOffset":1141304,
			"target":34962
		},
		{
			"buffer":0,
			"byteLength":60120,
			"byteOffset":1231484,
			"target":34962
		},
		{
			"buffer":0,
			"byteLength":24444,
			"byteOffset":1291604,
			"target":34963
		},
		{
			"buffer":0,
			"byteLength":48264,
			"byteOffset":1316048,
			"target":34962
		},
		{
			"buffer":0,
			"byteLength":48264,
			"byteOffset":1364312,
			"target":34962
		},
		{
			"buffer":0,
			"byteLength":32176,
			"byteOffset":1412576,
			"target":34962
		},
		{
			"buffer":0,
			"byteLength":13488,
			"byteOffset":1444752,
			"target":34963
		}
	],
	"samplers":[
		{
			"magFilter":9729,
			"minFilter":9987
		}
	],
	"buffers":[
		{
			"byteLength":1458240,
			"uri":"data:application/octet-stream;base64,"
		}
	]
}
